<?xml version="1.0" encoding="UTF-8"?>
<svg width="540px" height="190px" viewBox="0 0 540 190" version="1.1" xmlns="http://www.w3.org/2000/svg" xmlns:xlink="http://www.w3.org/1999/xlink">
    <!-- Generator: Sketch 51.3 (57544) - http://www.bohemiancoding.com/sketch -->
    <title>logo</title>
    <desc>Created with Sketch.</desc>
    <defs>
        <path d="M159.245863,68.4971587 C156.624451,35.4018362 137.619216,32.4527481 137.619216,32.4527481 C126.736614,8.0493358 110.130992,-0.0177728202 94.6788012,0.138576746 C79.4233503,0.292935642 61.8493397,8.36004426 52.2362428,32.4527481 C52.2362428,32.4527481 34.6385858,39.3956406 30.6095964,68.4971587 C23.0923905,75.188846 12.7008148,91.3535193 10.9490088,108.14601 C5.55111512e-17,119.064388 -3.46385858,151.393735 4.41098344,157.952832 C-2.79789869,195.635625 193.807977,195.635625 186.599095,157.952832 C193.774807,147.504134 191.666841,121.373627 178.90645,108.14601 C180.774807,93.1756406 167.437774,73.4123056 159.245863,68.4971587 Z" id="path-1"></path>
        <filter x="-6.3%" y="-6.4%" width="112.6%" height="112.9%" filterUnits="objectBoundingBox" id="filter-2">
            <feGaussianBlur stdDeviation="12" in="SourceAlpha" result="shadowBlurInner1"></feGaussianBlur>
            <feOffset dx="0" dy="0" in="shadowBlurInner1" result="shadowOffsetInner1"></feOffset>
            <feComposite in="shadowOffsetInner1" in2="SourceAlpha" operator="arithmetic" k2="-1" k3="1" result="shadowInnerInner1"></feComposite>
            <feColorMatrix values="0 0 0 0 0.639588648   0 0 0 0 0.581058471   0 0 0 0 0.434733027  0 0 0 0.567963089 0" type="matrix" in="shadowInnerInner1"></feColorMatrix>
        </filter>
        <linearGradient x1="50%" y1="0%" x2="50%" y2="50%" id="linearGradient-3">
            <stop stop-color="#234C30" offset="0%"></stop>
            <stop stop-color="#03220D" offset="100%"></stop>
        </linearGradient>
    </defs>
    <g id="Page-1" stroke="none" stroke-width="1" fill="none" fill-rule="evenodd">
        <g id="logo">
            <path d="M308.697874,178.313689 L282.266156,178.313689 L282.266156,91.3533367 C282.266156,76.2872574 275.39391,70.7365966 264.028271,70.7365966 C252.662632,70.7365966 242.882896,79.4590636 238.125187,88.4458477 L238.125187,178.313689 L211.693469,178.313689 L211.693469,50.6484909 L238.125187,50.6484909 L238.125187,67.8291076 C244.997434,57.5207376 259.270562,47.4766847 275.129592,47.4766847 C298.125187,47.4766847 308.697874,60.1639094 308.697874,82.1022354 L308.697874,178.313689 Z M373.367478,181.485495 C337.156024,181.485495 318.125187,150.296068 318.125187,114.348931 C318.125187,78.4017949 337.156024,47.4766847 373.367478,47.4766847 C409.578932,47.4766847 428.609769,78.4017949 428.609769,114.348931 C428.609769,150.296068 409.578932,181.485495 373.367478,181.485495 Z M373.367478,158.225583 C392.662632,158.225583 401.385099,137.344526 401.385099,114.348931 C401.385099,91.3533367 392.662632,70.7365966 373.367478,70.7365966 C354.072324,70.7365966 345.349857,91.3533367 345.349857,114.348931 C345.349857,137.344526 354.072324,158.225583 373.367478,158.225583 Z M464.468799,178.313689 L438.037081,178.313689 L438.037081,50.6484909 L464.468799,50.6484909 L464.468799,69.4150107 C471.86968,56.9921032 485.349857,47.7410019 499.622984,47.7410019 L499.622984,73.9084028 C497.508447,73.3797684 495.129592,73.1154513 492.750738,73.1154513 C481.913733,73.1154513 469.755143,81.3092838 464.468799,90.8247024 L464.468799,178.313689 Z M522.750738,34.5251429 C513.763954,34.5251429 506.098755,27.1242618 506.098755,18.1374777 C506.098755,8.88637636 513.763954,1.4854953 522.750738,1.4854953 C531.737522,1.4854953 539.138403,8.88637636 539.138403,18.1374777 C539.138403,27.1242618 531.737522,34.5251429 522.750738,34.5251429 Z M535.966597,178.313689 L509.534879,178.313689 L509.534879,50.6484909 L535.966597,50.6484909 L535.966597,178.313689 Z" id="nori" fill="#000000"></path>
            <g id="ball" transform="translate(0.225193, 0.495866)" fill-rule="nonzero">
                <g id="rice-bg">
                    <use fill="#EDEBE6" xlink:href="#path-1"></use>
                    <use fill="black" fill-opacity="1" filter="url(#filter-2)" xlink:href="#path-1"></use>
                </g>
                <path d="M144.656508,182.013796 C144.656508,191.516414 46.3535704,191.516414 46.3535704,182.013796 L46.3535704,105.026799 C46.3535704,104.474514 46.8012856,104.026799 47.3535704,104.026799 L143.656508,104.026799 C144.208793,104.026799 144.656508,104.474514 144.656508,105.026799 L144.656508,182.013796 Z" id="seaweed-bg" fill="url(#linearGradient-3)"></path>
                <g id="seaweed" transform="translate(51.000000, 106.000000)" fill="#435D44">
                    <polygon id="Shape" transform="translate(3.718873, 12.176010) rotate(-294.817405) translate(-3.718873, -12.176010) " points="3.71887261 9.41213677 1.93572871 12.265167 3.71887261 14.9398828 5.5020165 12.265167"></polygon>
                    <polygon id="Shape" transform="translate(24.046713, 22.176010) rotate(-33.573790) translate(-24.046713, -22.176010) " points="24.046713 19.4121368 22.2635691 22.265167 24.046713 24.9398828 25.8298569 22.265167"></polygon>
                    <polygon id="Shape" transform="translate(47.257544, 21.675069) rotate(-298.377301) translate(-47.257544, -21.675069) " points="47.2575437 18.9111962 45.4743998 21.7642264 47.2575437 24.4389423 49.0406876 21.7642264"></polygon>
                    <polygon id="Shape" transform="translate(3.718873, 5.592772) rotate(-266.874053) translate(-3.718873, -5.592772) " points="3.71887261 2.82889854 1.93572871 5.50361439 3.71887261 8.35664462 5.5020165 5.50361439"></polygon>
                    <polygon id="Shape" transform="translate(24.046713, 5.592772) rotate(-349.315314) translate(-24.046713, -5.592772) " points="24.046713 2.82889854 22.2635691 5.50361439 24.046713 8.35664462 25.8298569 5.50361439"></polygon>
                    <polygon id="Shape" transform="translate(44.374553, 5.592772) rotate(-158.410857) translate(-44.374553, -5.592772) " points="44.3745534 2.82889854 42.5914095 5.50361439 44.3745534 8.35664462 46.1576973 5.50361439"></polygon>
                    <polygon id="Shape" transform="translate(3.718873, 38.937562) rotate(-225.404216) translate(-3.718873, -38.937562) " points="3.71887261 36.1736894 1.93572871 38.8484052 3.71887261 41.7014355 5.5020165 38.8484052"></polygon>
                    <polygon id="Shape" transform="translate(14.046713, 48.937562) rotate(-215.094179) translate(-14.046713, -48.937562) " points="14.046713 46.1736894 12.2635691 48.8484052 14.046713 51.7014355 15.8298569 48.8484052"></polygon>
                    <polygon id="Shape" transform="translate(41.699541, 33.845067) rotate(-129.016314) translate(-41.699541, -33.845067) " points="41.6995413 31.0811943 39.9163974 33.7559101 41.6995413 36.6089403 43.4826851 33.7559101"></polygon>
                    <polygon id="Shape" transform="translate(34.210633, 30.556786) rotate(-145.844341) translate(-34.210633, -30.556786) " points="34.2106332 27.7929131 32.4274893 30.6459433 34.2106332 33.3206591 35.9937771 30.6459433"></polygon>
                    <polygon id="Shape" transform="translate(14.882793, 23.556786) rotate(-344.177048) translate(-14.882793, -23.556786) " points="14.8827928 20.7929131 13.0996489 23.6459433 14.8827928 26.3206591 16.6659367 23.6459433"></polygon>
                    <polygon id="Shape" transform="translate(34.210633, 3.973548) rotate(-33.471424) translate(-34.210633, -3.973548) " points="34.2106332 1.20967485 32.4274893 3.88439069 34.2106332 6.73742093 35.9937771 3.88439069"></polygon>
                    <polygon id="Shape" transform="translate(13.882793, 13.973548) rotate(-225.191504) translate(-13.882793, -13.973548) " points="13.8827928 11.2096749 12.0996489 13.8843907 13.8827928 16.7374209 15.6659367 13.8843907"></polygon>
                    <polygon id="Shape" transform="translate(64.963366, 32.176010) rotate(-63.615011) translate(-64.963366, -32.176010) " points="64.9633658 29.4121368 63.1802219 32.265167 64.9633658 34.9398828 66.7465097 32.265167"></polygon>
                    <polygon id="Shape" transform="translate(85.291206, 22.176010) rotate(-22.668760) translate(-85.291206, -22.176010) " points="85.2912062 19.4121368 83.5080623 22.265167 85.2912062 24.9398828 87.0743501 22.265167"></polygon>
                    <polygon id="Shape" transform="translate(64.963366, 5.592772) rotate(-201.500405) translate(-64.963366, -5.592772) " points="64.9633658 2.82889854 63.1802219 5.50361439 64.9633658 8.35664462 66.7465097 5.50361439"></polygon>
                    <polygon id="Shape" transform="translate(85.291206, 5.592772) rotate(-353.386561) translate(-85.291206, -5.592772) " points="85.2912062 2.82889854 83.5080623 5.50361439 85.2912062 8.35664462 87.0743501 5.50361439"></polygon>
                    <polygon id="Shape" transform="translate(58.080357, 40.922445) rotate(-335.762141) translate(-58.080357, -40.922445) " points="58.0803574 38.1585722 56.2972135 40.833288 58.0803574 43.6863183 59.8635013 40.833288"></polygon>
                    <polygon id="Shape" transform="translate(72.803215, 51.021016) rotate(-192.129132) translate(-72.803215, -51.021016) " points="72.803215 48.2571432 71.0200711 50.9318591 72.803215 53.7848893 74.5863589 50.9318591"></polygon>
                    <polygon id="Shape" transform="translate(75.127286, 20.556786) rotate(-227.589852) translate(-75.127286, -20.556786) " points="75.127286 17.7929131 73.3441421 20.6459433 75.127286 23.3206591 76.9104299 20.6459433"></polygon>
                    <polygon id="Shape" transform="translate(65.070344, 17.376179) rotate(-219.131218) translate(-65.070344, -17.376179) " points="65.0703436 14.6123063 63.2871997 17.4653365 65.0703436 20.1400523 66.8534875 17.4653365"></polygon>
                    <polygon id="Shape" transform="translate(74.949825, 9.397465) rotate(-321.736560) translate(-74.949825, -9.397465) " points="74.9498253 6.63359177 73.1666814 9.30830761 74.9498253 12.1613378 76.7329692 9.30830761"></polygon>
                    <polygon id="Shape" transform="translate(54.799446, 13.973548) rotate(-71.441055) translate(-54.799446, -13.973548) " points="54.7994456 11.2096749 53.0163017 13.8843907 54.7994456 16.7374209 56.5825895 13.8843907"></polygon>
                    <polygon id="Shape" transform="translate(3.718873, 56.105224) rotate(-165.920776) translate(-3.718873, -56.105224) " points="3.71887261 53.3413513 1.93572871 56.1943815 3.71887261 58.8690973 5.5020165 56.1943815"></polygon>
                    <polygon id="Shape" transform="translate(24.046713, 52.105224) rotate(-224.436214) translate(-24.046713, -52.105224) " points="24.046713 49.3413513 22.2635691 52.1943815 24.046713 54.8690973 25.8298569 52.1943815"></polygon>
                    <polygon id="Shape" transform="translate(44.374553, 56.105224) rotate(-265.217536) translate(-44.374553, -56.105224) " points="44.3745534 53.3413513 42.5914095 56.1943815 44.3745534 58.8690973 46.1576973 56.1943815"></polygon>
                    <polygon id="Shape" transform="translate(3.718873, 72.866777) rotate(-276.706587) translate(-3.718873, -72.866777) " points="3.71887261 70.1029039 1.93572871 72.7776197 3.71887261 75.6306499 5.5020165 72.7776197"></polygon>
                    <polygon id="Shape" transform="translate(24.046713, 62.866777) rotate(-197.264313) translate(-24.046713, -62.866777) " points="24.046713 60.1029039 22.2635691 62.7776197 24.046713 65.6306499 25.8298569 62.7776197"></polygon>
                    <polygon id="Shape" transform="translate(44.374553, 72.866777) rotate(-28.395851) translate(-44.374553, -72.866777) " points="44.3745534 70.1029039 42.5914095 72.7776197 44.3745534 75.6306499 46.1576973 72.7776197"></polygon>
                    <polygon id="Shape" transform="translate(34.210633, 74.486001) rotate(-240.321914) translate(-34.210633, -74.486001) " points="34.2106332 71.7221276 32.4274893 74.5751578 34.2106332 77.2498736 35.9937771 74.5751578"></polygon>
                    <polygon id="Shape" transform="translate(15.882793, 70.486001) rotate(-118.204045) translate(-15.882793, -70.486001) " points="15.8827928 67.7221276 14.0996489 70.5751578 15.8827928 73.2498736 17.6659367 70.5751578"></polygon>
                    <polygon id="Shape" transform="translate(34.210633, 57.902762) rotate(-65.434091) translate(-34.210633, -57.902762) " points="34.2106332 55.1388893 32.4274893 57.8136052 34.2106332 60.6666354 35.9937771 57.8136052"></polygon>
                    <polygon id="Shape" transform="translate(13.882793, 57.902762) rotate(-127.616745) translate(-13.882793, -57.902762) " points="13.8827928 55.1388893 12.0996489 57.8136052 13.8827928 60.6666354 15.6659367 57.8136052"></polygon>
                    <polygon id="Shape" transform="translate(64.963366, 56.105224) rotate(-269.354870) translate(-64.963366, -56.105224) " points="64.9633658 53.3413513 63.1802219 56.1943815 64.9633658 58.8690973 66.7465097 56.1943815"></polygon>
                    <polygon id="Shape" transform="translate(85.291206, 56.105224) rotate(-287.325036) translate(-85.291206, -56.105224) " points="85.2912062 53.3413513 83.5080623 56.1943815 85.2912062 58.8690973 87.0743501 56.1943815"></polygon>
                    <polygon id="Shape" transform="translate(64.963366, 72.866777) rotate(-245.622487) translate(-64.963366, -72.866777) " points="64.9633658 70.1029039 63.1802219 72.7776197 64.9633658 75.6306499 66.7465097 72.7776197"></polygon>
                    <polygon id="Shape" transform="translate(85.291206, 72.866777) rotate(-290.665180) translate(-85.291206, -72.866777) " points="85.2912062 70.1029039 83.5080623 72.7776197 85.2912062 75.6306499 87.0743501 72.7776197"></polygon>
                    <polygon id="Shape" transform="translate(84.105961, 34.143207) rotate(-348.960456) translate(-84.105961, -34.143207) " points="84.105961 31.379334 82.3228172 34.2323642 84.105961 36.9070801 85.8891049 34.2323642"></polygon>
                    <polygon id="Shape" transform="translate(54.799446, 64.486001) rotate(-217.251229) translate(-54.799446, -64.486001) " points="54.7994456 61.7221276 53.0163017 64.5751578 54.7994456 67.2498736 56.5825895 64.5751578"></polygon>
                    <polygon id="Shape" transform="translate(75.127286, 63.993916) rotate(-237.383513) translate(-75.127286, -63.993916) " points="75.127286 61.2300428 73.3441421 63.9047586 75.127286 66.7577888 76.9104299 63.9047586"></polygon>
                    <polygon id="Shape" transform="translate(54.799446, 50.494724) rotate(-306.887885) translate(-54.799446, -50.494724) " points="54.7994456 47.7308508 53.0163017 50.4055666 54.7994456 53.2585969 56.5825895 50.4055666"></polygon>
                    <polygon id="Shape" transform="translate(20.046713, 33.866777) rotate(-245.208593) translate(-20.046713, -33.866777) " points="20.046713 31.1029039 18.2635691 33.7776197 20.046713 36.6306499 21.8298569 33.7776197"></polygon>
                    <polygon id="Shape" transform="translate(40.374553, 43.866777) rotate(-59.299393) translate(-40.374553, -43.866777) " points="40.3745534 41.1029039 38.5914095 43.7776197 40.3745534 46.6306499 42.1576973 43.7776197"></polygon>
                    <polygon id="Shape" transform="translate(30.210633, 45.486001) rotate(-39.249480) translate(-30.210633, -45.486001) " points="30.2106332 42.7221276 28.4274893 45.5751578 30.2106332 48.2498736 31.9937771 45.5751578"></polygon>
                    <polygon id="Shape" transform="translate(9.882793, 35.486001) rotate(-340.919809) translate(-9.882793, -35.486001) " points="9.88279281 32.7221276 8.09964892 35.5751578 9.88279281 38.2498736 11.6659367 35.5751578"></polygon>
                    <polygon id="Shape" transform="translate(30.210633, 18.902762) rotate(-10.164563) translate(-30.210633, -18.902762) " points="30.2106332 16.1388893 28.4274893 18.8136052 30.2106332 21.6666354 31.9937771 18.8136052"></polygon>
                    <polygon id="Shape" transform="translate(7.882793, 21.902762) rotate(-113.407003) translate(-7.882793, -21.902762) " points="7.88279281 19.1388893 6.09964892 21.8136052 7.88279281 24.6666354 9.66593671 21.8136052"></polygon>
                    <polygon id="Shape" transform="translate(60.963366, 27.105224) rotate(-287.937253) translate(-60.963366, -27.105224) " points="60.9633658 24.3413513 59.1802219 27.1943815 60.9633658 29.8690973 62.7465097 27.1943815"></polygon>
                    <polygon id="Shape" transform="translate(84.914809, 13.107739) rotate(-77.301593) translate(-84.914809, -13.107739) " points="84.9148091 10.3438656 83.1316652 13.1968958 84.9148091 15.8716116 86.697953 13.1968958"></polygon>
                    <polygon id="Shape" transform="translate(64.142063, 47.409527) rotate(-232.965347) translate(-64.142063, -47.409527) " points="64.1420632 44.6456537 62.3589193 47.3203696 64.1420632 50.1733998 65.9252071 47.3203696"></polygon>
                    <polygon id="Shape" transform="translate(81.291206, 43.866777) rotate(-206.015941) translate(-81.291206, -43.866777) " points="81.2912062 41.1029039 79.5080623 43.7776197 81.2912062 46.6306499 83.0743501 43.7776197"></polygon>
                    <polygon id="Shape" transform="translate(71.127286, 25.486001) rotate(-30.125855) translate(-71.127286, -25.486001) " points="71.127286 22.7221276 69.3441421 25.5751578 71.127286 28.2498736 72.9104299 25.5751578"></polygon>
                    <polygon id="Shape" transform="translate(50.799446, 35.486001) rotate(-204.895148) translate(-50.799446, -35.486001) " points="50.7994456 32.7221276 49.0163017 35.5751578 50.7994456 38.2498736 52.5825895 35.5751578"></polygon>
                    <polygon id="Shape" transform="translate(73.127286, 39.902762) rotate(-219.458561) translate(-73.127286, -39.902762) " points="73.127286 37.1388893 71.3441421 39.8136052 73.127286 42.6666354 74.9104299 39.8136052"></polygon>
                    <polygon id="Shape" transform="translate(39.310753, 14.954555) rotate(-350.305668) translate(-39.310753, -14.954555) " points="39.3107527 12.1906818 37.5276088 14.8653976 39.3107527 17.7184278 41.0938966 14.8653976"></polygon>
                </g>
                <g id="rice" transform="translate(2.309239, 4.757055)" fill="#A3946F" fill-opacity="0.203181612" opacity="0.531082589">
                    <path d="M143.186951,70.7953052 C143.258438,70.7953052 147.734356,70.7951608 147.805429,70.7948737 C152.489212,70.7759542 154.155836,70.1372147 154.155836,69.3520308 C154.155836,68.566884 152.488903,67.9281678 147.805429,67.9091905 C147.734136,67.9089016 143.258661,67.9087563 143.186951,67.9087563 C138.40436,67.9087563 136.836543,68.5549323 136.836543,69.3520308 C136.836543,70.1491292 138.40436,70.7953052 143.186951,70.7953052 Z" id="Oval" transform="translate(145.496190, 69.352031) rotate(-315.998908) translate(-145.496190, -69.352031) "></path>
                    <path d="M83.5729945,3.92339716 C83.6444815,3.92339716 88.1204001,3.92325279 88.1914726,3.92296571 C92.8752562,3.90404621 94.54188,3.26530669 94.54188,2.48012276 C94.54188,1.69497601 92.874947,1.05625981 88.1914726,1.0372825 C88.1201796,1.03699362 83.6447047,1.03684835 83.5729945,1.03684835 C78.7904038,1.03684835 77.2225871,1.68302431 77.2225871,2.48012276 C77.2225871,3.2772212 78.7904038,3.92339716 83.5729945,3.92339716 Z" id="Oval" transform="translate(85.882234, 2.480123) rotate(-180.756799) translate(-85.882234, -2.480123) "></path>
                    <path d="M5.80215478,144.778421 C5.87364182,144.778421 10.3495604,144.778277 10.4206329,144.77799 C15.1044165,144.75907 16.7710403,144.120331 16.7710403,143.335147 C16.7710403,142.55 15.1041073,141.911284 10.4206329,141.892307 C10.3493399,141.892018 5.87386496,141.891872 5.80215478,141.891872 C1.01956411,141.891872 -0.548252617,142.538048 -0.548252617,143.335147 C-0.548252617,144.132245 1.01956411,144.778421 5.80215478,144.778421 Z" id="Oval" transform="translate(8.111394, 143.335147) rotate(-310.362621) translate(-8.111394, -143.335147) "></path>
                    <path d="M31.6407533,140.467671 C31.7122404,140.467671 36.188159,140.467527 36.2592314,140.46724 C40.943015,140.44832 42.6096388,139.80958 42.6096388,139.024397 C42.6096388,138.23925 40.9427059,137.600534 36.2592314,137.581556 C36.1879384,137.581267 31.7124635,137.581122 31.6407533,137.581122 C26.8581627,137.581122 25.2903459,138.227298 25.2903459,139.024397 C25.2903459,139.821495 26.8581627,140.467671 31.6407533,140.467671 Z" id="Oval" transform="translate(33.949992, 139.024397) rotate(-108.930542) translate(-33.949992, -139.024397) "></path>
                    <path d="M37.4154161,93.4196729 C37.4869031,93.4196729 41.9628217,93.4195285 42.0338942,93.4192415 C46.7176778,93.400322 48.3843016,92.7615824 48.3843016,91.9763985 C48.3843016,91.1912518 46.7173686,90.5525356 42.0338942,90.5335582 C41.9626012,90.5332694 37.4871263,90.5331241 37.4154161,90.5331241 C32.6328254,90.5331241 31.0650087,91.1793001 31.0650087,91.9763985 C31.0650087,92.7734969 32.6328254,93.4196729 37.4154161,93.4196729 Z" id="Oval" transform="translate(39.724655, 91.976399) rotate(-58.331980) translate(-39.724655, -91.976399) "></path>
                    <path d="M20.9131134,136.285669 C20.9846004,136.285669 25.460519,136.285525 25.5315915,136.285238 C30.2153751,136.266318 31.8819989,135.627579 31.8819989,134.842395 C31.8819989,134.057248 30.2150659,133.418532 25.5315915,133.399555 C25.4602985,133.399266 20.9848236,133.399121 20.9131134,133.399121 C16.1305227,133.399121 14.562706,134.045296 14.562706,134.842395 C14.562706,135.639493 16.1305227,136.285669 20.9131134,136.285669 Z" id="Oval" transform="translate(23.222352, 134.842395) rotate(-114.136170) translate(-23.222352, -134.842395) "></path>
                    <path d="M146.057312,136.033575 C146.128799,136.033575 150.604718,136.03343 150.67579,136.033143 C155.359574,136.014224 157.026198,135.375484 157.026198,134.5903 C157.026198,133.805154 155.359265,133.166437 150.67579,133.14746 C150.604497,133.147171 146.129022,133.147026 146.057312,133.147026 C141.274722,133.147026 139.706905,133.793202 139.706905,134.5903 C139.706905,135.387399 141.274722,136.033575 146.057312,136.033575 Z" id="Oval" transform="translate(148.366551, 134.590300) rotate(-274.399674) translate(-148.366551, -134.590300) "></path>
                    <path d="M55.5589213,32.4833911 C55.6304083,32.4833911 60.1063269,32.4832467 60.1773994,32.4829597 C64.861183,32.4640402 66.5278068,31.8253007 66.5278068,31.0401167 C66.5278068,30.25497 64.8608738,29.6162538 60.1773994,29.5972765 C60.1061064,29.5969876 55.6306315,29.5968423 55.5589213,29.5968423 C50.7763306,29.5968423 49.2085139,30.2430183 49.2085139,31.0401167 C49.2085139,31.8372152 50.7763306,32.4833911 55.5589213,32.4833911 Z" id="Oval" transform="translate(57.868160, 31.040117) rotate(-8.679176) translate(-57.868160, -31.040117) "></path>
                    <path d="M32.8416561,77.0574743 C32.9131431,77.0574743 37.3890617,77.0573299 37.4601342,77.0570428 C42.1439178,77.0381233 43.8105416,76.3993838 43.8105416,75.6141998 C43.8105416,74.8290531 42.1436086,74.1903369 37.4601342,74.1713596 C37.3888412,74.1710707 32.9133662,74.1709254 32.8416561,74.1709254 C28.0590654,74.1709254 26.4912487,74.8171014 26.4912487,75.6141998 C26.4912487,76.4112983 28.0590654,77.0574743 32.8416561,77.0574743 Z" id="Oval" transform="translate(35.150895, 75.614200) rotate(-200.583815) translate(-35.150895, -75.614200) "></path>
                    <path d="M46.1138781,62.9850378 C46.1853652,62.9850378 50.6612838,62.9848934 50.7323562,62.9846063 C55.4161398,62.9656868 57.0827636,62.3269473 57.0827636,61.5417634 C57.0827636,60.7566166 55.4158307,60.1179004 50.7323562,60.0989231 C50.6610632,60.0986342 46.1855883,60.098489 46.1138781,60.098489 C41.3312875,60.098489 39.7634707,60.7446649 39.7634707,61.5417634 C39.7634707,62.3388618 41.3312875,62.9850378 46.1138781,62.9850378 Z" id="Oval" transform="translate(48.423117, 61.541763) rotate(-342.766206) translate(-48.423117, -61.541763) "></path>
                    <path d="M166.973407,99.1277216 C167.044894,99.1277216 171.520813,99.1275772 171.591885,99.1272901 C176.275669,99.1083706 177.942293,98.4696311 177.942293,97.6844472 C177.942293,96.8993004 176.27536,96.2605842 171.591885,96.2416069 C171.520592,96.241318 167.045117,96.2411728 166.973407,96.2411728 C162.190816,96.2411728 160.623,96.8873487 160.623,97.6844472 C160.623,98.4815456 162.190816,99.1277216 166.973407,99.1277216 Z" id="Oval" transform="translate(169.282646, 97.684447) rotate(-264.620155) translate(-169.282646, -97.684447) "></path>
                    <path d="M176.546568,121.892055 C176.618055,121.892055 181.093974,121.891911 181.165046,121.891624 C185.84883,121.872704 187.515454,121.233965 187.515454,120.448781 C187.515454,119.663634 185.848521,119.024918 181.165046,119.005941 C181.093753,119.005652 176.618278,119.005507 176.546568,119.005507 C171.763978,119.005507 170.196161,119.651683 170.196161,120.448781 C170.196161,121.245879 171.763978,121.892055 176.546568,121.892055 Z" id="Oval" transform="translate(178.855807, 120.448781) rotate(-257.739880) translate(-178.855807, -120.448781) "></path>
                    <path d="M101.588801,81.3964869 C101.660288,81.3964869 106.136206,81.3963425 106.207279,81.3960555 C110.891062,81.377136 112.557686,80.7383964 112.557686,79.9532125 C112.557686,79.1680658 110.890753,78.5293496 106.207279,78.5103722 C106.135986,78.5100834 101.660511,78.5099381 101.588801,78.5099381 C96.8062099,78.5099381 95.2383932,79.1561141 95.2383932,79.9532125 C95.2383932,80.7503109 96.8062099,81.3964869 101.588801,81.3964869 Z" id="Oval" transform="translate(103.898040, 79.953213) rotate(-2.515104) translate(-103.898040, -79.953213) "></path>
                    <path d="M138.616738,53.1539201 C138.688225,53.1539201 143.164143,53.1537757 143.235216,53.1534887 C147.918999,53.1345692 149.585623,52.4958296 149.585623,51.7106457 C149.585623,50.925499 147.91869,50.2867828 143.235216,50.2678054 C143.163923,50.2675166 138.688448,50.2673713 138.616738,50.2673713 C133.834147,50.2673713 132.26633,50.9135473 132.26633,51.7106457 C132.26633,52.5077442 133.834147,53.1539201 138.616738,53.1539201 Z" id="Oval" transform="translate(140.925977, 51.710646) rotate(-280.860044) translate(-140.925977, -51.710646) "></path>
                    <path d="M124.521724,54.833849 C124.593211,54.833849 129.06913,54.8337047 129.140203,54.8334176 C133.823986,54.8144981 135.49061,54.1757586 135.49061,53.3905746 C135.49061,52.6054279 133.823677,51.9667117 129.140203,51.9477344 C129.06891,51.9474455 124.593435,51.9473002 124.521724,51.9473002 C119.739134,51.9473002 118.171317,52.5934762 118.171317,53.3905746 C118.171317,54.1876731 119.739134,54.833849 124.521724,54.833849 Z" id="Oval" transform="translate(126.830963, 53.390575) rotate(-44.472408) translate(-126.830963, -53.390575) "></path>
                    <path d="M137.279816,89.6702097 C137.351303,89.6702097 141.827221,89.6700653 141.898294,89.6697782 C146.582077,89.6508587 148.248701,89.0121192 148.248701,88.2269353 C148.248701,87.4417885 146.581768,86.8030723 141.898294,86.784095 C141.827001,86.7838062 137.351526,86.7836609 137.279816,86.7836609 C132.497225,86.7836609 130.929408,87.4298368 130.929408,88.2269353 C130.929408,89.0240337 132.497225,89.6702097 137.279816,89.6702097 Z" id="Oval" transform="translate(139.589055, 88.226935) rotate(-349.444187) translate(-139.589055, -88.226935) "></path>
                    <path d="M64.9297201,43.3885255 C65.0012071,43.3885255 69.4771257,43.3883812 69.5481982,43.3880941 C74.2319818,43.3691746 75.8986056,42.7304351 75.8986056,41.9452511 C75.8986056,41.1601044 74.2316726,40.5213882 69.5481982,40.5024109 C69.4769052,40.502122 65.0014303,40.5019767 64.9297201,40.5019767 C60.1471294,40.5019767 58.5793127,41.1481527 58.5793127,41.9452511 C58.5793127,42.7423496 60.1471294,43.3885255 64.9297201,43.3885255 Z" id="Oval" transform="translate(67.238959, 41.945251) rotate(-33.545445) translate(-67.238959, -41.945251) "></path>
                    <path d="M101.588801,92.8050639 C101.660288,92.8050639 106.136206,92.8049195 106.207279,92.8046325 C110.891062,92.785713 112.557686,92.1469734 112.557686,91.3617895 C112.557686,90.5766428 110.890753,89.9379266 106.207279,89.9189493 C106.135986,89.9186604 101.660511,89.9185151 101.588801,89.9185151 C96.8062099,89.9185151 95.2383932,90.5646911 95.2383932,91.3617895 C95.2383932,92.158888 96.8062099,92.8050639 101.588801,92.8050639 Z" id="Oval" transform="translate(103.898040, 91.361790) rotate(-319.758909) translate(-103.898040, -91.361790) "></path>
                    <path d="M113.515578,67.4377216 C113.587065,67.4377216 118.062984,67.4375772 118.134056,67.4372901 C122.81784,67.4183706 124.484464,66.7796311 124.484464,65.9944472 C124.484464,65.2093004 122.817531,64.5705842 118.134056,64.5516069 C118.062763,64.551318 113.587288,64.5511727 113.515578,64.5511727 C108.732987,64.5511727 107.165171,65.1973487 107.165171,65.9944472 C107.165171,66.7915456 108.732987,67.4377216 113.515578,67.4377216 Z" id="Oval" transform="translate(115.824817, 65.994447) rotate(-9.130480) translate(-115.824817, -65.994447) "></path>
                    <path d="M91.972058,41.7888915 C92.043545,41.7888915 96.5194636,41.7887472 96.5905361,41.7884601 C101.27432,41.7695406 102.940943,41.1308011 102.940943,40.3456171 C102.940943,39.5604704 101.27401,38.9217542 96.5905361,38.9027769 C96.5192431,38.902488 92.0437681,38.9023427 91.972058,38.9023427 C87.1894673,38.9023427 85.6216506,39.5485187 85.6216506,40.3456171 C85.6216506,41.1427156 87.1894673,41.7888915 91.972058,41.7888915 Z" id="Oval" transform="translate(94.281297, 40.345617) rotate(-201.307914) translate(-94.281297, -40.345617) "></path>
                    <path d="M54.8123402,82.4273444 C54.8838272,82.4273444 59.3597458,82.4272 59.4308183,82.4269129 C64.1146019,82.4079935 65.7812257,81.7692539 65.7812257,80.98407 C65.7812257,80.1989232 64.1142927,79.560207 59.4308183,79.5412297 C59.3595253,79.5409409 54.8840504,79.5407956 54.8123402,79.5407956 C50.0297495,79.5407956 48.4619328,80.1869716 48.4619328,80.98407 C48.4619328,81.7811684 50.0297495,82.4273444 54.8123402,82.4273444 Z" id="Oval" transform="translate(57.121579, 80.984070) rotate(-170.499890) translate(-57.121579, -80.984070) "></path>
                    <path d="M69.8631296,77.6931104 C69.9346167,77.6931104 74.4105353,77.692966 74.4816077,77.6926789 C79.1653913,77.6737594 80.8320151,77.0350199 80.8320151,76.249836 C80.8320151,75.4646892 79.1650822,74.825973 74.4816077,74.8069957 C74.4103147,74.8067068 69.9348398,74.8065616 69.8631296,74.8065616 C65.080539,74.8065616 63.5127222,75.4527375 63.5127222,76.249836 C63.5127222,77.0469344 65.080539,77.6931104 69.8631296,77.6931104 Z" id="Oval" transform="translate(72.172369, 76.249836) rotate(-112.191854) translate(-72.172369, -76.249836) "></path>
                    <path d="M170.048095,160.555032 C170.119582,160.555032 174.5955,160.554887 174.666573,160.5546 C179.350356,160.535681 181.01698,159.896941 181.01698,159.111757 C181.01698,158.326611 179.350047,157.687895 174.666573,157.668917 C174.59528,157.668628 170.119805,157.668483 170.048095,157.668483 C165.265504,157.668483 163.697687,158.314659 163.697687,159.111757 C163.697687,159.908856 165.265504,160.555032 170.048095,160.555032 Z" id="Oval" transform="translate(172.357334, 159.111757) rotate(-204.949210) translate(-172.357334, -159.111757) "></path>
                    <path d="M174.451951,138.400031 C174.523438,138.400031 178.999357,138.399886 179.070429,138.399599 C183.754213,138.38068 185.420837,137.74194 185.420837,136.956756 C185.420837,136.171609 183.753904,135.532893 179.070429,135.513916 C178.999136,135.513627 174.523661,135.513482 174.451951,135.513482 C169.66936,135.513482 168.101544,136.159658 168.101544,136.956756 C168.101544,137.753855 169.66936,138.400031 174.451951,138.400031 Z" id="Oval" transform="translate(176.761190, 136.956756) rotate(-338.090778) translate(-176.761190, -136.956756) "></path>
                    <path d="M117.457465,80.9332249 C117.528952,80.9332249 122.00487,80.9330805 122.075943,80.9327934 C126.759726,80.9138739 128.42635,80.2751344 128.42635,79.4899505 C128.42635,78.7048037 126.759417,78.0660875 122.075943,78.0471102 C122.00465,78.0468213 117.529175,78.0466761 117.457465,78.0466761 C112.674874,78.0466761 111.107057,78.692852 111.107057,79.4899505 C111.107057,80.2870489 112.674874,80.9332249 117.457465,80.9332249 Z" id="Oval" transform="translate(119.766704, 79.489950) rotate(-93.848191) translate(-119.766704, -79.489950) "></path>
                    <path d="M87.0316819,59.7352625 C87.103169,59.7352625 91.5790876,59.7351181 91.65016,59.734831 C96.3339436,59.7159115 98.0005674,59.077172 98.0005674,58.2919881 C98.0005674,57.5068413 96.3336345,56.8681251 91.65016,56.8491478 C91.578867,56.848859 87.1033921,56.8487137 87.0316819,56.8487137 C82.2490913,56.8487137 80.6812745,57.4948896 80.6812745,58.2919881 C80.6812745,59.0890865 82.2490913,59.7352625 87.0316819,59.7352625 Z" id="Oval" transform="translate(89.340921, 58.291988) rotate(-279.492884) translate(-89.340921, -58.291988) "></path>
                    <path d="M161.474883,85.8260811 C161.54637,85.8260811 166.022289,85.8259367 166.093361,85.8256496 C170.777145,85.8067301 172.443768,85.1679906 172.443768,84.3828067 C172.443768,83.5976599 170.776835,82.9589437 166.093361,82.9399664 C166.022068,82.9396775 161.546593,82.9395323 161.474883,82.9395323 C156.692292,82.9395323 155.124476,83.5857082 155.124476,84.3828067 C155.124476,85.1799051 156.692292,85.8260811 161.474883,85.8260811 Z" id="Oval" transform="translate(163.784122, 84.382807) rotate(-257.736659) translate(-163.784122, -84.382807) "></path>
                    <path d="M49.8616757,48.178368 C49.9331627,48.178368 54.4090813,48.1782236 54.4801538,48.1779365 C59.1639374,48.159017 60.8305612,47.5202775 60.8305612,46.7350936 C60.8305612,45.9499468 59.1636282,45.3112306 54.4801538,45.2922533 C54.4088608,45.2919644 49.9333859,45.2918192 49.8616757,45.2918192 C45.079085,45.2918192 43.5112683,45.9379951 43.5112683,46.7350936 C43.5112683,47.532192 45.079085,48.178368 49.8616757,48.178368 Z" id="Oval" transform="translate(52.170915, 46.735094) rotate(-318.826677) translate(-52.170915, -46.735094) "></path>
                    <path d="M131.027761,77.9923761 C131.099248,77.9923761 135.575167,77.9922317 135.646239,77.9919446 C140.330023,77.9730251 141.996646,77.3342856 141.996646,76.5491016 C141.996646,75.7639549 140.329713,75.1252387 135.646239,75.1062614 C135.574946,75.1059725 131.099471,75.1058272 131.027761,75.1058272 C126.24517,75.1058272 124.677354,75.7520032 124.677354,76.5491016 C124.677354,77.3462001 126.24517,77.9923761 131.027761,77.9923761 Z" id="Oval" transform="translate(133.337000, 76.549102) rotate(-344.678680) translate(-133.337000, -76.549102) "></path>
                    <path d="M88.0131871,75.472055 C88.0846741,75.472055 92.5605927,75.4719106 92.6316652,75.4716235 C97.3154488,75.4527041 98.9820726,74.8139645 98.9820726,74.0287806 C98.9820726,73.2436338 97.3151396,72.6049176 92.6316652,72.5859403 C92.5603722,72.5856515 88.0848973,72.5855062 88.0131871,72.5855062 C83.2305964,72.5855062 81.6627797,73.2316822 81.6627797,74.0287806 C81.6627797,74.825879 83.2305964,75.472055 88.0131871,75.472055 Z" id="Oval" transform="translate(90.322426, 74.028781) rotate(-36.792939) translate(-90.322426, -74.028781) "></path>
                    <path d="M58.0407418,95.0379744 C58.1122288,95.0379744 62.5881474,95.03783 62.6592199,95.0375429 C67.3430035,95.0186234 69.0096273,94.3798839 69.0096273,93.5947 C69.0096273,92.8095532 67.3426943,92.170837 62.6592199,92.1518597 C62.5879269,92.1515708 58.112452,92.1514256 58.0407418,92.1514256 C53.2581511,92.1514256 51.6903344,92.7976015 51.6903344,93.5947 C51.6903344,94.3917984 53.2581511,95.0379744 58.0407418,95.0379744 Z" id="Oval" transform="translate(60.349981, 93.594700) rotate(-184.388026) translate(-60.349981, -93.594700) "></path>
                    <path d="M103.044065,13.8553385 C103.115552,13.8553385 107.591471,13.8551942 107.662543,13.8549071 C112.346327,13.8359876 114.012951,13.1972481 114.012951,12.4120641 C114.012951,11.6269174 112.346018,10.9882012 107.662543,10.9692239 C107.59125,10.968935 103.115775,10.9687897 103.044065,10.9687897 C98.2614745,10.9687897 96.6936578,11.6149657 96.6936578,12.4120641 C96.6936578,13.2091626 98.2614745,13.8553385 103.044065,13.8553385 Z" id="Oval" transform="translate(105.353304, 12.412064) rotate(-269.920659) translate(-105.353304, -12.412064) "></path>
                    <path d="M161.474883,115.427601 C161.54637,115.427601 166.022289,115.427457 166.093361,115.42717 C170.777145,115.40825 172.443768,114.769511 172.443768,113.984327 C172.443768,113.19918 170.776835,112.560464 166.093361,112.541487 C166.022068,112.541198 161.546593,112.541053 161.474883,112.541053 C156.692292,112.541053 155.124476,113.187229 155.124476,113.984327 C155.124476,114.781425 156.692292,115.427601 161.474883,115.427601 Z" id="Oval" transform="translate(163.784122, 113.984327) rotate(-33.552557) translate(-163.784122, -113.984327) "></path>
                    <path d="M172.119412,149.127169 C172.190899,149.127169 176.666817,149.127024 176.73789,149.126737 C181.421673,149.107818 183.088297,148.469078 183.088297,147.683894 C183.088297,146.898748 181.421364,146.260031 176.73789,146.241054 C176.666597,146.240765 172.191122,146.24062 172.119412,146.24062 C167.336821,146.24062 165.769004,146.886796 165.769004,147.683894 C165.769004,148.480993 167.336821,149.127169 172.119412,149.127169 Z" id="Oval" transform="translate(174.428651, 147.683894) rotate(-222.076087) translate(-174.428651, -147.683894) "></path>
                    <path d="M161.649678,128.248597 C161.721165,128.248597 166.197083,128.248452 166.268156,128.248165 C170.951939,128.229246 172.618563,127.590506 172.618563,126.805322 C172.618563,126.020175 170.95163,125.381459 166.268156,125.362482 C166.196863,125.362193 161.721388,125.362048 161.649678,125.362048 C156.867087,125.362048 155.29927,126.008224 155.29927,126.805322 C155.29927,127.602421 156.867087,128.248597 161.649678,128.248597 Z" id="Oval" transform="translate(163.958917, 126.805322) rotate(-165.542333) translate(-163.958917, -126.805322) "></path>
                    <path d="M157.245841,144.911636 C157.317328,144.911636 161.793246,144.911492 161.864319,144.911205 C166.548102,144.892285 168.214726,144.253546 168.214726,143.468362 C168.214726,142.683215 166.547793,142.044499 161.864319,142.025521 C161.793026,142.025233 157.317551,142.025087 157.245841,142.025087 C152.46325,142.025087 150.895433,142.671263 150.895433,143.468362 C150.895433,144.26546 152.46325,144.911636 157.245841,144.911636 Z" id="Oval" transform="translate(159.555080, 143.468362) rotate(-69.820650) translate(-159.555080, -143.468362) "></path>
                    <path d="M114.920757,22.0597412 C114.992244,22.0597412 119.468162,22.0595968 119.539235,22.0593097 C124.223018,22.0403902 125.889642,21.4016507 125.889642,20.6164667 C125.889642,19.83132 124.222709,19.1926038 119.539235,19.1736265 C119.467942,19.1733376 114.992467,19.1731923 114.920757,19.1731923 C110.138166,19.1731923 108.570349,19.8193683 108.570349,20.6164667 C108.570349,21.4135652 110.138166,22.0597412 114.920757,22.0597412 Z" id="Oval" transform="translate(117.229996, 20.616467) rotate(-222.330267) translate(-117.229996, -20.616467) "></path>
                    <path d="M150.733857,92.8050639 C150.805345,92.8050639 155.281263,92.8049195 155.352336,92.8046325 C160.036119,92.785713 161.702743,92.1469734 161.702743,91.3617895 C161.702743,90.5766428 160.03581,89.9379266 155.352336,89.9189493 C155.281043,89.9186604 150.805568,89.9185151 150.733857,89.9185151 C145.951267,89.9185151 144.38345,90.5646911 144.38345,91.3617895 C144.38345,92.158888 145.951267,92.8050639 150.733857,92.8050639 Z" id="Oval" transform="translate(153.043097, 91.361790) rotate(-67.274866) translate(-153.043097, -91.361790) "></path>
                    <path d="M109.858929,42.1949386 C109.930416,42.1949386 114.406335,42.1947942 114.477407,42.1945072 C119.161191,42.1755877 120.827815,41.5368481 120.827815,40.7516642 C120.827815,39.9665175 119.160882,39.3278013 114.477407,39.3088239 C114.406114,39.3085351 109.930639,39.3083898 109.858929,39.3083898 C105.076338,39.3083898 103.508522,39.9545658 103.508522,40.7516642 C103.508522,41.5487627 105.076338,42.1949386 109.858929,42.1949386 Z" id="Oval" transform="translate(112.168168, 40.751664) rotate(-264.193611) translate(-112.168168, -40.751664) "></path>
                    <path d="M68.2774572,16.4014294 C68.3489443,16.4014294 72.8248629,16.401285 72.8959353,16.400998 C77.5797189,16.3820785 79.2463427,15.7433389 79.2463427,14.958155 C79.2463427,14.1730083 77.5794098,13.5342921 72.8959353,13.5153147 C72.8246423,13.5150259 68.3491674,13.5148806 68.2774572,13.5148806 C63.4948666,13.5148806 61.9270498,14.1610566 61.9270498,14.958155 C61.9270498,15.7552535 63.4948666,16.4014294 68.2774572,16.4014294 Z" id="Oval" transform="translate(70.586696, 14.958155) rotate(-210.667452) translate(-70.586696, -14.958155) "></path>
                    <path d="M117.331197,94.3989656 C117.402684,94.3989656 121.878603,94.3988213 121.949675,94.3985342 C126.633459,94.3796147 128.300082,93.7408752 128.300082,92.9556912 C128.300082,92.1705445 126.633149,91.5318283 121.949675,91.512851 C121.878382,91.5125621 117.402907,91.5124168 117.331197,91.5124168 C112.548606,91.5124168 110.980789,92.1585928 110.980789,92.9556912 C110.980789,93.7527897 112.548606,94.3989656 117.331197,94.3989656 Z" id="Oval" transform="translate(119.640436, 92.955691) rotate(-336.871341) translate(-119.640436, -92.955691) "></path>
                    <path d="M20.9131134,157.113865 C20.9846004,157.113865 25.460519,157.11372 25.5315915,157.113433 C30.2153751,157.094514 31.8819989,156.455774 31.8819989,155.67059 C31.8819989,154.885443 30.2150659,154.246727 25.5315915,154.22775 C25.4602985,154.227461 20.9848236,154.227316 20.9131134,154.227316 C16.1305227,154.227316 14.562706,154.873492 14.562706,155.67059 C14.562706,156.467689 16.1305227,157.113865 20.9131134,157.113865 Z" id="Oval" transform="translate(23.222352, 155.670590) rotate(-42.127968) translate(-23.222352, -155.670590) "></path>
                    <path d="M79.4002307,40.5981561 C79.4717178,40.5981561 83.9476364,40.5980118 84.0187088,40.5977247 C88.7024924,40.5788052 90.3691162,39.9400657 90.3691162,39.1548817 C90.3691162,38.369735 88.7021833,37.7310188 84.0187088,37.7120415 C83.9474158,37.7117526 79.4719409,37.7116073 79.4002307,37.7116073 C74.6176401,37.7116073 73.0498233,38.3577833 73.0498233,39.1548817 C73.0498233,39.9519802 74.6176401,40.5981561 79.4002307,40.5981561 Z" id="Oval" transform="translate(81.709470, 39.154882) rotate(-259.909863) translate(-81.709470, -39.154882) "></path>
                    <path d="M151.528421,109.619111 C151.599908,109.619111 156.075827,109.618967 156.1469,109.61868 C160.830683,109.59976 162.497307,108.961021 162.497307,108.175837 C162.497307,107.39069 160.830374,106.751974 156.1469,106.732997 C156.075607,106.732708 151.600132,106.732563 151.528421,106.732563 C146.745831,106.732563 145.178014,107.378739 145.178014,108.175837 C145.178014,108.972935 146.745831,109.619111 151.528421,109.619111 Z" id="Oval" transform="translate(153.837660, 108.175837) rotate(-240.912321) translate(-153.837660, -108.175837) "></path>
                    <path d="M149.494042,165.516389 C149.565529,165.516389 154.041448,165.516245 154.11252,165.515958 C158.796304,165.497038 160.462928,164.858299 160.462928,164.073115 C160.462928,163.287968 158.795995,162.649252 154.11252,162.630274 C154.041227,162.629985 149.565752,162.62984 149.494042,162.62984 C144.711452,162.62984 143.143635,163.276016 143.143635,164.073115 C143.143635,164.870213 144.711452,165.516389 149.494042,165.516389 Z" id="Oval" transform="translate(151.803281, 164.073115) rotate(-63.695394) translate(-151.803281, -164.073115) "></path>
                    <path d="M98.5338727,30.0841151 C98.6053597,30.0841151 103.081278,30.0839707 103.152351,30.0836836 C107.836134,30.0647641 109.502758,29.4260246 109.502758,28.6408407 C109.502758,27.8556939 107.835825,27.2169777 103.152351,27.1980004 C103.081058,27.1977115 98.6055828,27.1975662 98.5338727,27.1975662 C93.751282,27.1975662 92.1834653,27.8437422 92.1834653,28.6408407 C92.1834653,29.4379391 93.751282,30.0841151 98.5338727,30.0841151 Z" id="Oval" transform="translate(100.843112, 28.640841) rotate(-160.718417) translate(-100.843112, -28.640841) "></path>
                    <path d="M87.22599,16.4014294 C87.297477,16.4014294 91.7733956,16.401285 91.8444681,16.400998 C96.5282517,16.3820785 98.1948755,15.7433389 98.1948755,14.958155 C98.1948755,14.1730083 96.5279425,13.5342921 91.8444681,13.5153147 C91.7731751,13.5150259 87.2977002,13.5148806 87.22599,13.5148806 C82.4433993,13.5148806 80.8755826,14.1610566 80.8755826,14.958155 C80.8755826,15.7552535 82.4433993,16.4014294 87.22599,16.4014294 Z" id="Oval" transform="translate(89.535229, 14.958155) rotate(-286.520026) translate(-89.535229, -14.958155) "></path>
                    <path d="M75.5638573,27.7588501 C75.6353443,27.7588501 80.1112629,27.7587057 80.1823354,27.7584186 C84.866119,27.7394992 86.5327428,27.1007596 86.5327428,26.3155757 C86.5327428,25.5304289 84.8658098,24.8917127 80.1823354,24.8727354 C80.1110424,24.8724466 75.6355674,24.8723013 75.5638573,24.8723013 C70.7812666,24.8723013 69.2134499,25.5184772 69.2134499,26.3155757 C69.2134499,27.1126741 70.7812666,27.7588501 75.5638573,27.7588501 Z" id="Oval" transform="translate(77.873096, 26.315576) rotate(-351.244953) translate(-77.873096, -26.315576) "></path>
                    <path d="M64.2794221,61.900607 C64.3509091,61.900607 68.8268277,61.9004626 68.8979002,61.9001755 C73.5816838,61.881256 75.2483076,61.2425165 75.2483076,60.4573326 C75.2483076,59.6721858 73.5813746,59.0334696 68.8979002,59.0144923 C68.8266072,59.0142034 64.3511323,59.0140581 64.2794221,59.0140581 C59.4968314,59.0140581 57.9290147,59.6602341 57.9290147,60.4573326 C57.9290147,61.254431 59.4968314,61.900607 64.2794221,61.900607 Z" id="Oval" transform="translate(66.588661, 60.457333) rotate(-186.226736) translate(-66.588661, -60.457333) "></path>
                    <path d="M30.8214224,114.270911 C30.8929094,114.270911 35.368828,114.270767 35.4399005,114.27048 C40.1236841,114.25156 41.7903079,113.612821 41.7903079,112.827637 C41.7903079,112.04249 40.1233749,111.403774 35.4399005,111.384797 C35.3686075,111.384508 30.8931326,111.384362 30.8214224,111.384362 C26.0388317,111.384362 24.471015,112.030538 24.471015,112.827637 C24.471015,113.624735 26.0388317,114.270911 30.8214224,114.270911 Z" id="Oval" transform="translate(33.130661, 112.827637) rotate(-230.776420) translate(-33.130661, -112.827637) "></path>
                    <path d="M13.7127341,113.729025 C13.7842211,113.729025 18.2601397,113.728881 18.3312122,113.728594 C23.0149958,113.709675 24.6816196,113.070935 24.6816196,112.285751 C24.6816196,111.500604 23.0146866,110.861888 18.3312122,110.842911 C18.2599192,110.842622 13.7844443,110.842477 13.7127341,110.842477 C8.93014343,110.842477 7.36232671,111.488653 7.36232671,112.285751 C7.36232671,113.08285 8.93014343,113.729025 13.7127341,113.729025 Z" id="Oval" transform="translate(16.021973, 112.285751) rotate(-161.183604) translate(-16.021973, -112.285751) "></path>
                    <path d="M5.94101948,125.56216 C6.01250652,125.56216 10.4884251,125.562016 10.5594976,125.561729 C15.2432812,125.542809 16.909905,124.90407 16.909905,124.118886 C16.909905,123.333739 15.242972,122.695023 10.5594976,122.676046 C10.4882046,122.675757 6.01272967,122.675612 5.94101948,122.675612 C1.15842881,122.675612 -0.409387913,123.321788 -0.409387913,124.118886 C-0.409387913,124.915984 1.15842881,125.56216 5.94101948,125.56216 Z" id="Oval" transform="translate(8.250259, 124.118886) rotate(-217.885696) translate(-8.250259, -124.118886) "></path>
                    <path d="M21.4052484,101.547649 C21.4767354,101.547649 25.952654,101.547505 26.0237265,101.547218 C30.7075101,101.528298 32.3741339,100.889559 32.3741339,100.104375 C32.3741339,99.3192281 30.7072009,98.6805119 26.0237265,98.6615346 C25.9524335,98.6612457 21.4769586,98.6611004 21.4052484,98.6611004 C16.6226577,98.6611004 15.054841,99.3072764 15.054841,100.104375 C15.054841,100.901473 16.6226577,101.547649 21.4052484,101.547649 Z" id="Oval" transform="translate(23.714487, 100.104375) rotate(-46.661491) translate(-23.714487, -100.104375) "></path>
                    <path d="M22.5598679,88.8468345 C22.6313549,88.8468345 27.1072735,88.8466901 27.178346,88.846403 C31.8621296,88.8274835 33.5287534,88.188744 33.5287534,87.4035601 C33.5287534,86.6184133 31.8618204,85.9796971 27.178346,85.9607198 C27.107053,85.9604309 22.6315781,85.9602856 22.5598679,85.9602856 C17.7772772,85.9602856 16.2094605,86.6064616 16.2094605,87.4035601 C16.2094605,88.2006585 17.7772772,88.8468345 22.5598679,88.8468345 Z" id="Oval" transform="translate(24.869107, 87.403560) rotate(-193.589984) translate(-24.869107, -87.403560) "></path>
                    <path d="M81.6124401,90.4653947 C81.6839271,90.4653947 86.1598457,90.4652504 86.2309182,90.4649633 C90.9147018,90.4460438 92.5813256,89.8073043 92.5813256,89.0221203 C92.5813256,88.2369736 90.9143926,87.5982574 86.2309182,87.5792801 C86.1596252,87.5789912 81.6841502,87.5788459 81.6124401,87.5788459 C76.8298494,87.5788459 75.2620327,88.2250219 75.2620327,89.0221203 C75.2620327,89.8192188 76.8298494,90.4653947 81.6124401,90.4653947 Z" id="Oval" transform="translate(83.921679, 89.022120) rotate(-198.595033) translate(-83.921679, -89.022120) "></path>
                    <path d="M120.989595,43.0542546 C121.061082,43.0542546 125.537,43.0541102 125.608073,43.0538231 C130.291856,43.0349036 131.95848,42.3961641 131.95848,41.6109802 C131.95848,40.8258334 130.291547,40.1871172 125.608073,40.1681399 C125.53678,40.167851 121.061305,40.1677057 120.989595,40.1677057 C116.207004,40.1677057 114.639187,40.8138817 114.639187,41.6109802 C114.639187,42.4080786 116.207004,43.0542546 120.989595,43.0542546 Z" id="Oval" transform="translate(123.298834, 41.610980) rotate(-255.738144) translate(-123.298834, -41.610980) "></path>
                    <path d="M98.6595976,53.942946 C98.7310847,53.942946 103.207003,53.9428016 103.278076,53.9425146 C107.961859,53.9235951 109.628483,53.2848555 109.628483,52.4996716 C109.628483,51.7145249 107.96155,51.0758087 103.278076,51.0568313 C103.206783,51.0565425 98.7313078,51.0563972 98.6595976,51.0563972 C93.877007,51.0563972 92.3091902,51.7025732 92.3091902,52.4996716 C92.3091902,53.29677 93.877007,53.942946 98.6595976,53.942946 Z" id="Oval" transform="translate(100.968837, 52.499672) rotate(-128.355051) translate(-100.968837, -52.499672) "></path>
                </g>
            </g>
        </g>
    </g>
</svg>